# xmcd
#
# Track frame offsets:
#	150
#	8845
#	20995
#	38175
#	48932
#	66475
#	78035
#	89525
#	106852
#	117495
#	130630
#	140165
#
# Disc length: 2010 seconds
#
# Revision: 0
# Processed by: cddbd v1.5PL3 Copyright (c) Steve Scherf et al.
# Submitted via: dBpowerAMP V4.0
#
DISCID=a207d80c
DTITLE=Sleepy Labeef - The Human Jukebox
DYEAR=1995
DGENRE=Country
TTITLE0=Good Rockin' Boogie
TTITLE1=Boom Boom Boom
TTITLE2=Blues Stay Away From Me
TTITLE3=Tore Up
TTITLE4=There Is Something On Your Mind
TTITLE5=Shotgun Boogie
TTITLE6=Boogie Woogie Country Girl
TTITLE7=Faded Love
TTITLE8=Corina Corina
TTITLE9=Me And Bobbie McGee
TTITLE10=Raining In My Heart
TTITLE11=Blackland Farmer
EXTD=
EXTT0=
EXTT1=
EXTT2=
EXTT3=
EXTT4=
EXTT5=
EXTT6=
EXTT7=
EXTT8=
EXTT9=
EXTT10=
EXTT11=
PLAYORDER=
